<?xml version="1.0" standalone="no"?>
<!DOCTYPE svg PUBLIC "-//W3C//DTD SVG 20010904//EN"
 "http://www.w3.org/TR/2001/REC-SVG-20010904/DTD/svg10.dtd">
<svg version="1.0" xmlns="http://www.w3.org/2000/svg"
 width="512.000000pt" height="512.000000pt" viewBox="0 0 512.000000 512.000000"
 preserveAspectRatio="xMidYMid meet">

<g transform="translate(0.000000,512.000000) scale(0.100000,-0.100000)"
fill="#000000" stroke="none">
<path d="M2115 4914 c-16 -2 -73 -9 -125 -15 -342 -40 -609 -228 -747 -526
-63 -136 -75 -203 -80 -445 l-5 -217 -47 -48 c-141 -146 -142 -356 -4 -504 55
-60 141 -105 217 -114 l52 -7 17 -79 c28 -121 102 -261 189 -354 39 -42 100
-97 135 -121 63 -46 63 -46 63 -95 0 -131 -42 -192 -175 -255 -144 -68 -242
-101 -499 -165 -133 -33 -260 -67 -284 -76 -85 -32 -177 -136 -201 -228 -6
-22 -20 -193 -31 -380 -73 -1206 -71 -1164 -56 -1198 7 -18 26 -43 41 -57 l27
-25 1874 -3 c1853 -2 1875 -2 1913 18 65 33 86 72 86 162 0 85 -14 114 -75
155 -32 22 -41 23 -256 23 l-224 0 0 155 0 154 388 3 c370 3 389 4 432 24 53
25 114 84 143 139 22 40 22 43 25 839 3 897 6 855 -70 941 -22 25 -64 58 -92
73 l-51 27 -912 3 -912 3 39 82 c22 45 47 116 57 159 l17 76 52 7 c114 14 239
106 285 210 64 144 38 289 -72 409 l-49 54 0 155 c0 234 -23 360 -83 448 -34
50 -90 90 -134 96 l-40 5 -11 70 c-36 236 -227 382 -547 418 -86 9 -205 11
-270 4z m-410 -903 c78 -53 134 -81 227 -112 224 -76 507 -38 694 93 32 22 68
44 80 49 53 19 111 -28 157 -129 21 -45 22 -61 25 -431 3 -322 1 -396 -13
-463 -19 -96 -45 -164 -92 -240 -31 -52 -38 -58 -68 -58 -49 0 -134 -35 -178
-73 -21 -17 -52 -61 -71 -97 -31 -62 -34 -65 -92 -84 -45 -15 -89 -20 -189
-20 -148 -1 -197 10 -334 76 -68 32 -101 57 -165 122 -92 92 -144 175 -184
291 l-27 80 0 425 c0 387 2 429 18 465 44 97 103 152 152 139 11 -3 38 -18 60
-33z m-335 -606 c0 -213 -3 -265 -13 -265 -41 0 -119 34 -159 70 -61 53 -89
115 -90 197 -1 137 108 259 235 262 l27 1 0 -265z m1711 250 c185 -63 231
-314 81 -445 -40 -36 -119 -70 -159 -70 -10 0 -13 52 -13 265 l0 265 23 0 c13
0 44 -7 68 -15z m1631 -1068 c46 -28 73 -62 87 -112 9 -29 11 -246 9 -806 l-3
-765 -28 -42 c-15 -23 -46 -52 -70 -64 -41 -23 -49 -23 -414 -26 l-373 -3 0
283 c0 265 -1 285 -20 316 -38 62 -68 72 -225 72 -157 0 -187 -10 -225 -72
-19 -31 -20 -51 -20 -316 l0 -283 -373 3 -374 3 -48 30 c-30 19 -56 45 -69 70
-21 39 -21 51 -24 800 -2 521 0 772 8 797 12 44 52 93 95 119 29 18 74 19
1030 19 l1000 0 37 -23z m-2631 -247 c91 -13 200 -7 286 16 30 8 56 14 58 14
3 0 5 -79 5 -176 l0 -177 -112 -116 c-62 -64 -120 -116 -128 -116 -8 0 -95 82
-194 182 l-178 182 28 57 c19 39 30 79 32 120 l4 61 58 -18 c32 -10 95 -23
141 -29z m-179 -427 c93 -92 168 -172 168 -178 0 -13 -132 -145 -145 -145 -18
0 -401 392 -388 397 7 2 52 24 100 48 48 24 90 44 93 44 3 1 80 -74 172 -166z
m-252 -198 l226 -225 45 0 c54 0 86 21 180 120 45 47 75 70 90 70 15 0 54 -31
120 -95 53 -52 101 -95 107 -95 7 0 12 -96 15 -292 3 -207 8 -304 17 -330 24
-67 81 -130 149 -165 l63 -33 384 0 384 0 0 -149 0 -150 -223 -3 c-223 -3
-224 -3 -264 -30 -56 -37 -75 -83 -71 -169 l3 -69 -837 0 -838 0 0 618 c0 672
1 662 -55 662 -48 0 -55 -28 -55 -232 l0 -188 -210 0 -209 0 5 48 c2 26 11
171 20 322 16 293 21 328 57 381 46 69 85 86 368 158 145 38 273 69 284 70 13
1 93 -72 245 -224z m780 18 l0 -127 -60 59 c-33 33 -60 64 -60 69 0 9 109 126
117 126 2 0 3 -57 3 -127z m1366 -407 c18 -14 19 -32 22 -485 l3 -471 -146 0
-145 0 3 471 c2 453 3 471 21 485 28 20 214 20 242 0z m-2706 -846 l0 -380
-217 0 c-120 0 -224 4 -232 9 -13 8 -12 52 3 328 9 175 19 342 22 371 l6 52
209 0 209 0 0 -380z m3272 -237 c26 -23 25 -96 -2 -123 -20 -20 -33 -20 -679
-20 -651 0 -659 0 -685 21 -33 26 -37 88 -6 119 20 20 33 20 687 20 606 0 668
-1 685 -17z"/>
<path d="M1823 3473 c-39 -8 -73 -52 -73 -95 0 -50 13 -74 50 -93 46 -24 78
-19 116 19 56 56 42 131 -32 162 -18 8 -35 13 -36 13 -2 -1 -13 -4 -25 -6z"/>
<path d="M2493 3466 c-69 -31 -80 -121 -21 -171 77 -65 190 14 158 110 -19 58
-80 86 -137 61z"/>
<path d="M1956 2987 c-32 -23 -23 -67 20 -104 111 -94 302 -98 419 -8 60 45
69 92 23 116 -17 9 -28 5 -64 -20 -61 -45 -106 -61 -164 -61 -60 0 -110 19
-156 60 -39 33 -52 36 -78 17z"/>
<path d="M3660 4028 c-52 -15 -100 -56 -122 -104 -17 -41 -18 -67 -16 -432 l3
-388 28 -42 c15 -23 45 -51 67 -62 38 -19 57 -20 640 -20 583 0 602 1 640 20
22 11 52 39 67 62 l28 42 3 388 c2 365 1 391 -16 432 -23 50 -70 89 -127 105
-52 14 -1145 14 -1195 -1z m1207 -122 l28 -24 3 -344 c2 -188 0 -358 -3 -377
-4 -18 -17 -44 -30 -57 l-24 -24 -581 0 -581 0 -24 24 c-13 13 -26 39 -30 57
-3 19 -5 189 -3 377 l3 344 28 24 28 24 579 0 579 0 28 -24z"/>
<path d="M4308 3808 c-19 -15 -178 -525 -178 -569 0 -33 30 -54 65 -45 16 4
28 19 39 48 37 100 156 503 156 529 0 42 -48 63 -82 37z"/>
<path d="M3858 3662 c-106 -106 -128 -133 -128 -157 0 -25 22 -51 129 -157 84
-84 136 -128 150 -128 25 0 61 33 61 56 0 10 -47 65 -105 123 l-105 107 96 94
c108 107 122 131 99 166 -32 49 -59 34 -197 -104z"/>
<path d="M4464 3765 c-8 -13 -13 -32 -10 -42 3 -10 51 -63 106 -118 l100 -99
-105 -107 c-58 -58 -105 -113 -105 -123 0 -23 36 -56 61 -56 14 0 66 44 150
128 107 106 129 132 129 157 0 24 -22 51 -128 157 -139 139 -165 153 -198 103z"/>
</g>
</svg>
